<?xml version="1.0" encoding="UTF-8"?>
<svg id="Camada_1" data-name="Camada 1" xmlns="http://www.w3.org/2000/svg" viewBox="0 0 800 800">
  <defs>
    <style>
      .cls-1 {
        fill: #1c1c1c;
      }

      .cls-2 {
        fill: #f1e52f;
      }
    </style>
  </defs>
  <rect class="cls-1" x="0" y="0" width="800" height="800"/>
  <g>
    <path class="cls-2" d="M621.98,641.46c.06,26.64-29.62,42.57-51.78,27.79l-96.34-64.22-55.31-36.88c-11.19-7.46-25.76-7.46-36.95,0l-55.54,37.03-96.25,64.17c-22.13,14.76-51.78-1.11-51.78-27.71v-146.14c0-8.83,3.51-17.3,9.75-23.54l54.52-54.56c6.24-6.25,9.75-14.71,9.75-23.54v-119.8c0-8.83,3.51-17.3,9.75-23.54l115.65-115.74c13.09-13.1,34.35-13.01,47.32.2l113.32,115.37c6.1,6.21,9.52,14.56,9.54,23.26l.28,119.27c.02,8.7,3.45,17.05,9.54,23.26l54.65,55.65c6.1,6.21,9.52,14.56,9.54,23.26l.34,146.42Z"/>
    <g>
      <path class="cls-1" d="M474.59,295.2h0c-1.68,1.52-2.07,4-.95,5.97,6.52,11.48,10.44,24.64,10.93,38.67,1.79,50.25-38.48,90-88.7,87.59-49.63-2.39-88.04-47.52-79.23-99.38,5.84-34.39,32.47-61.67,66.73-68.19,15.69-2.99,30.8-1.64,44.35,3.06,2.68.93,5.59-.62,6.28-3.38h0c.61-2.43-.73-4.92-3.1-5.75-9.68-3.36-20.08-5.18-30.91-5.18-57.93,0-103.65,52.24-92.64,112.18,6.36,34.59,40.16,68.39,74.75,74.75,59.94,11.02,112.18-34.71,112.18-92.64,0-16.91-4.45-32.78-12.25-46.5-1.53-2.69-5.15-3.28-7.45-1.2Z"/>
      <path class="cls-1" d="M374.89,398.93c-7.19-2.65-12.93-7.05-17.24-13.18-4.31-6.13-6.91-14.28-7.79-24.45h20.06c.66,6.85,2.29,12.35,4.89,16.49,2.6,4.14,6.05,7.19,10.36,9.12,4.31,1.94,9.72,2.9,16.25,2.9,9.72,0,16.85-1.57,21.38-4.72,4.53-3.15,6.8-7.49,6.8-13.01,0-4.75-1.41-8.59-4.23-11.52-2.82-2.93-6.36-5.28-10.61-7.05-4.26-1.77-10.09-3.65-17.49-5.64-9.39-2.32-17.07-4.58-23.04-6.8-5.97-2.21-11.05-5.47-15.25-9.78-4.2-4.31-6.3-10.11-6.3-17.41,0-6.08,1.52-11.44,4.56-16.08,3.04-4.64,8.04-8.29,15-10.94,6.96-2.65,16.02-3.98,27.19-3.98,10.28,0,18.81,1.27,25.61,3.81,6.8,2.54,12.13,6.77,16,12.68,3.87,5.91,6.24,13.95,7.13,24.12h-19.56c-.77-6.74-2.1-12.1-3.98-16.08-1.88-3.98-4.84-6.88-8.87-8.7-4.04-1.82-9.48-2.74-16.33-2.74s-11.74.75-15.67,2.24c-3.92,1.49-6.74,3.48-8.45,5.97-1.72,2.49-2.57,5.39-2.57,8.7,0,4.31,1.38,7.85,4.14,10.61,2.76,2.76,6.22,4.97,10.36,6.63,4.14,1.66,9.75,3.48,16.83,5.47,9.84,2.21,17.76,4.45,23.79,6.71,6.02,2.27,11.24,5.69,15.67,10.28,4.42,4.59,6.63,10.64,6.63,18.15,0,6.52-1.58,12.16-4.72,16.91-3.15,4.75-8.37,8.48-15.67,11.19-7.29,2.71-16.8,4.06-28.51,4.06-10.39,0-19.18-1.33-26.36-3.98ZM396.77,271.79h8.79v142.23h-8.79v-142.23Z"/>
    </g>
  </g>
</svg>